<?xml version="1.0" encoding="UTF-8"?>
<!-- Generator: Adobe Illustrator 28.3.0, SVG Export Plug-In . SVG Version: 6.00 Build 0)  -->
<svg version="1.1" xmlns="http://www.w3.org/2000/svg" xmlns:xlink="http://www.w3.org/1999/xlink" x="0px" y="0px" viewBox="0 0 100 100" style="enable-background:new 0 0 100 100;" xml:space="preserve">
<style type="text/css">
	.st0{fill:#FCCF04;}
</style>
<g id="Слой_1">
	<g>
		<path class="st0" d="M-13,311.6v0.4h0.6C-12.6,311.9-12.8,311.7-13,311.6z"/>
		<path class="st0" d="M89.5,3.2v-1H10v1.3c0,18.8,0,37.6,0,56.4c0,2.2,0.4,4.3,1.1,6.3c2.2,6.5,6.3,11.7,11.3,16.2    C30.1,89.3,39,94,48.5,97.7c0.9,0.3,1.5,0.4,2.4,0c7.2-2.8,14.1-6.3,20.5-10.8c5.9-4.2,11.1-9.2,14.7-15.6    c1.8-3.3,3.3-6.7,3.4-10.5C89.5,41.6,89.5,22.4,89.5,3.2z M30.5,77.9c0.1,0,0.1,0.1,0.2,0.1h-0.2V77.9z M74.5,73.6    c-4.5,4.7-10,7.9-15.9,10.5c-2.6,1.2-5.3,2.1-7.9,3.1c-0.3,0.1-0.6,0.1-0.9,0.1V11.2h31.1v1.2c0,15.5-0.1,30.9,0,46.4    C80.9,64.7,78.5,69.5,74.5,73.6z"/>
	</g>
</g>
<g id="Слой_2">
	<g id="CPkvB7.tif">
		
			<image style="overflow:visible;" width="336" height="548" id="Layer_0_00000180334507970127816700000012384152953465591705_" xlink:href="shield-icon_files/B9ABF6C00F13164A.png" transform="matrix(0.5 0 0 0.5 -373 -62)">
		</image>
	</g>
</g>
</svg>