<?xml version="1.0" encoding="UTF-8"?>
<!-- Generator: Adobe Illustrator 28.3.0, SVG Export Plug-In . SVG Version: 6.00 Build 0)  -->
<svg version="1.1" xmlns="http://www.w3.org/2000/svg" xmlns:xlink="http://www.w3.org/1999/xlink" x="0px" y="0px" viewBox="0 0 96.6 86" style="enable-background:new 0 0 96.6 86;" xml:space="preserve">
<style type="text/css">
	.st0{display:none;}
	.st1{display:inline;}
	.st2{fill:#FCCF04;}
	.st3{fill:#A6A6A8;}
</style>
<g id="Слой_1" class="st0">
	<g class="st1">
		<path class="st2" d="M-14.9,304v0.4h0.6C-14.5,304.3-14.7,304.1-14.9,304z"/>
		<path class="st2" d="M87.5-4.4v-1H8.1v1.3c0,18.8,0,37.6,0,56.4c0,2.2,0.4,4.3,1.1,6.3c2.2,6.5,6.3,11.7,11.3,16.2    c7.7,6.9,16.6,11.6,26.1,15.4c0.9,0.3,1.5,0.4,2.4,0c7.2-2.8,14.1-6.3,20.5-10.8c5.9-4.2,11.1-9.2,14.7-15.6    c1.8-3.3,3.3-6.7,3.4-10.5C87.6,34.1,87.5,14.8,87.5-4.4z M28.6,70.4c0.1,0,0.1,0.1,0.2,0.1h-0.2V70.4z M72.6,66    c-4.5,4.7-10,7.9-15.9,10.5c-2.6,1.2-5.3,2.1-7.9,3.1c-0.3,0.1-0.6,0.1-0.9,0.1V3.6h31.1v1.2c0,15.5-0.1,30.9,0,46.4    C79,57.1,76.6,61.9,72.6,66z"/>
	</g>
</g>
<g id="Слой_3">
	<g>
		<path class="st3" d="M70.3,1H25.8c-1.1,0-2.1,0.6-2.7,1.6L0.9,41.5c-0.5,0.9-0.5,2.1,0,3.1l3.4,6c0.9,1.6,2.9,2,4.4,1l12.9-8.8    c0.9-0.6,1.4-1.6,1.3-2.7c-0.7-9.7,3.7-19.4,12.2-25.3c6.6-4.5,14.5-5.8,21.8-4.3c2.6,0.6,3.3,4,1.1,5.6L42.9,26.5    c-0.9,0.6-1.4,1.7-1.3,2.8l1,12.9c0.1,1.1,0.7,2.1,1.7,2.6l11.7,5.6c1,0.5,2.2,0.4,3.1-0.2l20.3-13.9l0,0    c0.7,9.7-3.6,19.4-12.2,25.3c-8.6,5.9-19.2,6.4-28,2.3c-1-0.5-2.1-0.4-3,0.3l-15,10.3c-1.3,0.9-1.7,2.7-0.9,4.1l3,5.2    c0.5,1,1.6,1.6,2.7,1.6h44.4c1.1,0,2.1-0.6,2.7-1.6l22.3-38.9c0.5-0.9,0.5-2.1,0-3.1L72.9,2.6C72.4,1.6,71.4,1,70.3,1z"/>
		<path class="st0" d="M-10.8,66.1l-2.6,13.8c-0.3,1.7,0.8,3.3,2.5,3.6L2.3,86c0.8,0.2,1.6,0,2.3-0.5l11.8-8.1    c1.3-0.9,1.7-2.7,0.9-4.1l-9.7-17c-0.9-1.6-2.9-2-4.4-1l-12.8,8.7C-10.2,64.6-10.7,65.3-10.8,66.1z"/>
		<path class="st0" d="M67.1,61.4c8.6-5.9,12.9-15.6,12.2-25.3l0,0L59,50c-0.9,0.6-2.1,0.7-3.1,0.2l-11.7-5.6    c-1-0.5-1.7-1.4-1.7-2.6l-1-12.9c-0.1-1.1,0.4-2.2,1.3-2.8L58.1,16c2.2-1.5,1.6-5-1.1-5.6c-7.3-1.6-15.2-0.3-21.8,4.3    C26.6,20.6,22.3,30.4,23,40.1c0.1,1.1-0.4,2.1-1.3,2.7L8.4,51.9c-1.3,0.9-1.7,2.7-0.9,4.1l9.7,17c0.9,1.6,2.9,2,4.4,1l14.6-10    c0.9-0.6,2-0.7,3-0.3C47.9,67.8,58.6,67.3,67.1,61.4z"/>
	</g>
</g>
<g id="Слой_2" class="st0">
	<g id="CPkvB7.tif" class="st1">
		
			<image style="overflow:visible;" width="336" height="548" id="Layer_0_00000180334507970127816700000012384152953465591705_" xlink:href="wrench_files/A87DF02E47C38DD4.png" transform="matrix(0.5 0 0 0.5 -184.9273 -85.5831)">
		</image>
	</g>
</g>
</svg>